P2
100 92
255
131
131
134
138
145
132
138
129
137
139
131
137
133
130
128
128
134
129
120
125
117
116
112
111
111
112
104
111
110
113
115
108
134
127
115
115
108
102
97
104
110
103
97
88
87
92
89
95
93
91
87
94
100
100
92
109
124
127
117
104
112
108
103
109
107
111
116
116
113
138
129
135
121
137
119
117
119
123
122
124
135
103
115
111
103
103
100
98
100
99
99
96
101
103
102
111
121
143
119
112
102
101
104
111
125
108
107
109
108
105
110
109
108
109
108
110
110
110
109
115
126
115
112
117
114
116
120
120
142
117
129
185
181
189
123
129
136
135
133
139
142
143
142
137
136
134
133
137
139
139
133
133
129
129
128
137
142
146
135
139
136
134
133
129
127
120
116
110
110
171
217
250
153
144
102
99
99
100
111
113
131
123
116
110
110
107
99
101
85
80
78
84
93
95
93
93
109
154
108
111
97
101
102
119
118
110
113
111
111
110
112
111
113
112
105
113
108
107
114
116
135
106
109
112
114
113
118
107
170
195
168
163
209
156
101
107
107
106
113
106
107
103
107
111
122
123
111
111
109
146
174
177
153
111
113
109
117
114
114
114
124
121
103
97
109
111
118
118
112
108
199
247
193
168
198
147
150
142
149
143
143
146
144
152
153
145
161
173
171
171
160
154
155
154
154
147
130
131
155
143
100
102
101
115
126
111
108
110
116
112
112
112
111
111
109
110
108
108
109
112
130
104
110
109
112
115
135
142
155
184
182
181
157
108
102
98
110
99
106
101
100
111
113
112
120
121
109
99
192
215
200
201
212
205
119
105
107
111
109
111
133
111
96
98
108
90
91
89
120
77
129
249
231
203
193
140
130
114
109
112
112
113
109
116
133
129
117
116
116
115
112
111
111
111
115
123
119
122
122
130
89
90
91
89
109
90
82
83
84
84
91
90
92
93
91
93
93
98
93
99
109
98
112
97
97
135
167
176
184
177
188
208
103
103
106
107
105
99
109
105
111
112
114
117
129
121
108
166
206
189
141
128
156
209
201
97
104
110
108
112
132
121
95
103
71
54
54
55
52
54
102
187
246
240
222
181
155
204
107
110
115
115
118
120
128
142
117
118
123
100
106
106
104
108
108
106
109
108
105
110
114
125
130
129
121
144
143
148
154
144
136
146
142
141
139
135
142
144
150
135
171
169
199
89
121
174
182
196
204
211
208
188
108
107
107
118
120
113
115
118
115
112
105
112
105
109
91
208
217
196
211
190
154
193
211
127
88
92
88
88
110
116
93
62
51
54
58
56
78
144
104
131
205
246
231
182
167
198
142
117
120
118
116
120
127
155
120
115
118
109
111
110
108
102
105
111
110
106
106
111
98
98
101
101
102
104
109
122
122
96
99
102
107
110
118
116
99
106
104
141
218
176
187
160
158
188
203
148
142
211
219
208
162
203
132
115
114
112
117
117
122
126
122
124
135
134
119
207
223
194
195
195
205
189
208
165
145
158
148
152
144
143
82
78
81
79
77
71
116
221
249
206
180
197
217
226
179
168
183
218
206
125
118
130
116
138
132
123
127
118
125
124
112
119
126
126
118
107
101
103
96
97
99
100
103
108
112
122
118
93
93
101
108
111
119
120
125
108
135
181
182
168
166
171
138
145
155
194
168
234
207
198
200
107
106
108
105
108
102
99
103
103
103
77
56
47
64
169
211
219
164
184
163
214
214
135
116
87
110
111
111
96
57
61
63
62
60
57
76
183
250
223
224
193
162
213
176
219
174
154
236
213
225
140
144
145
152
149
146
138
134
144
141
146
143
141
145
148
146
153
95
96
99
100
101
104
112
111
124
94
95
101
100
114
118
100
177
182
166
210
192
173
199
152
158
179
179
192
165
190
180
157
135
141
113
105
107
103
99
98
101
89
51
49
45
41
36
121
200
210
209
206
214
206
209
144
125
113
114
110
104
107
105
76
59
59
56
56
66
151
252
251
185
174
163
231
242
238
232
188
231
205
225
184
122
120
122
122
126
147
114
113
121
114
111
127
127
108
111
108
117
120
103
110
105
121
111
113
125
106
101
99
106
112
115
178
184
200
191
198
188
176
222
159
151
179
181
173
224
195
173
104
105
115
109
101
99
98
91
97
76
48
49
47
45
38
35
152
136
151
183
198
191
188
205
184
118
129
115
108
110
107
108
81
58
60
59
59
55
105
150
198
231
160
153
174
242
252
245
181
204
245
210
228
210
112
123
121
125
154
117
103
106
120
117
115
127
121
111
109
106
102
100
122
101
114
114
112
112
110
118
123
119
160
177
167
182
243
197
205
184
192
217
181
192
165
188
194
181
163
116
129
122
139
121
135
132
129
132
74
74
77
66
64
60
54
41
192
193
172
147
208
214
207
209
213
125
116
114
116
113
116
101
63
63
82
64
62
59
54
86
126
169
170
177
152
216
179
236
204
159
207
244
228
219
158
211
173
124
159
137
115
117
128
117
131
124
152
104
111
105
107
103
137
88
105
97
100
99
100
100
97
70
235
224
171
184
223
196
158
194
245
202
197
189
216
203
225
125
93
89
136
133
106
111
112
120
90
59
58
54
57
54
53
57
54
73
212
205
199
183
206
217
212
213
235
137
122
126
127
136
135
77
81
196
250
113
75
70
68
63
48
111
75
105
169
178
174
194
254
218
132
245
250
248
195
227
211
137
121
120
112
109
109
126
126
128
133
141
134
102
97
107
119
100
105
99
97
100
99
85
49
106
229
241
187
178
231
193
179
157
163
156
179
162
178
160
159
177
116
187
248
242
120
108
114
104
67
60
57
58
59
56
56
50
53
108
225
218
204
188
203
214
215
215
225
155
111
116
122
120
121
77
130
229
202
156
62
63
61
61
58
64
178
226
198
218
183
178
218
228
161
177
249
249
201
235
187
152
131
128
126
119
121
123
125
116
119
120
121
96
99
95
122
99
99
94
91
96
74
44
75
212
217
217
202
231
208
196
211
216
193
161
168
208
206
197
128
126
156
157
207
253
160
114
97
57
72
60
61
61
60
59
53
54
53
158
212
217
212
202
192
216
214
221
217
195
114
117
122
121
127
110
132
185
215
248
126
122
109
77
68
61
112
130
252
206
152
192
181
161
199
202
203
252
196
239
162
190
135
106
104
105
102
98
101
102
106
107
109
136
144
144
131
132
121
121
113
73
74
66
114
235
221
205
161
215
199
175
181
189
217
181
180
179
157
106
105
119
123
152
205
249
210
108
66
64
74
59
58
59
59
57
54
53
51
201
213
218
213
173
135
192
219
222
219
221
104
113
118
122
143
138
151
189
195
174
207
228
229
213
210
117
54
88
188
241
233
166
163
128
142
170
168
244
207
210
184
160
196
98
101
97
99
104
105
99
99
104
110
107
106
102
101
105
112
121
71
56
56
44
92
199
182
185
159
170
188
186
183
201
200
215
169
135
135
89
106
74
114
166
183
217
227
141
91
83
87
87
91
86
83
73
69
67
74
224
213
211
186
198
175
163
192
219
216
230
129
123
101
92
119
124
100
127
170
179
208
220
211
203
236
221
131
65
81
126
252
224
220
206
198
169
232
154
155
239
199
199
171
138
111
103
99
99
95
92
92
97
100
99
104
96
97
97
112
94
54
55
77
94
186
214
174
170
210
208
200
176
242
195
170
168
178
74
77
90
102
80
158
181
170
163
174
243
240
75
61
60
54
94
56
57
54
50
123
211
213
213
223
210
160
213
162
220
220
221
169
94
71
70
119
125
116
98
192
189
203
211
210
211
213
232
179
89
68
95
166
219
192
189
170
161
199
248
179
185
238
194
180
189
175
143
159
160
156
154
146
142
136
97
99
101
103
100
118
71
60
147
175
176
198
226
183
188
181
190
178
190
233
158
159
182
189
120
43
38
80
133
139
173
152
169
168
213
234
89
59
75
185
154
165
52
54
47
169
213
214
220
231
227
103
216
185
207
222
227
175
63
58
52
142
133
130
94
138
166
162
207
212
213
211
212
228
230
89
61
86
143
213
184
189
200
210
250
239
207
187
227
180
195
185
118
117
118
119
118
120
116
123
92
97
96
91
95
66
65
68
196
228
187
199
168
211
202
189
172
190
190
195
188
185
165
76
43
36
43
137
154
135
101
121
115
142
207
219
141
62
168
194
186
197
92
72
79
205
213
211
224
222
219
103
184
208
182
221
222
210
73
55
116
171
155
180
102
70
121
165
148
199
216
209
210
226
252
122
69
54
73
121
194
188
146
161
234
242
216
187
202
236
175
230
180
110
104
101
102
105
102
103
136
125
142
138
117
74
69
88
200
234
188
204
228
182
211
177
177
210
184
158
182
164
79
51
48
70
175
188
111
100
102
77
98
139
173
247
183
60
96
224
187
178
182
189
142
215
213
211
225
222
193
126
150
209
174
226
220
234
213
172
181
167
168
170
45
43
185
198
181
141
181
214
205
212
248
151
73
57
43
104
147
152
159
156
183
238
245
188
166
211
160
239
210
194
118
100
101
111
102
101
102
111
105
102
54
48
84
204
204
211
176
202
235
224
194
173
185
179
186
166
138
76
54
45
115
217
174
74
60
112
123
101
85
123
164
211
252
99
55
223
188
170
162
160
168
212
214
213
222
225
170
150
125
215
177
219
221
228
184
139
149
150
148
148
36
153
176
212
210
146
128
146
203
212
236
185
75
63
56
59
98
154
183
167
180
190
186
210
205
171
154
197
193
188
128
104
103
108
94
101
104
106
102
54
50
60
154
190
186
191
179
219
173
190
179
149
166
167
190
200
139
36
45
83
173
136
51
32
34
34
48
104
111
115
134
165
222
232
200
200
162
157
147
152
184
213
214
227
218
229
162
173
140
208
203
197
221
224
208
167
165
170
171
164
129
165
204
217
197
100
95
105
137
190
222
224
86
82
70
61
115
216
188
206
147
181
195
208
217
193
196
247
199
194
194
160
151
151
142
142
104
100
47
48
45
39
101
209
224
193
179
213
218
180
217
203
221
186
196
179
68
48
50
75
81
38
35
35
38
40
68
77
189
118
101
148
170
243
226
176
165
153
142
130
206
216
213
228
218
190
68
70
88
205
205
180
218
222
237
180
187
186
191
188
163
199
213
194
128
104
91
92
95
125
182
249
76
72
63
50
85
179
244
196
172
171
212
205
209
191
183
250
193
175
181
169
130
126
122
121
90
59
47
47
46
59
114
193
185
185
168
187
224
202
211
208
226
182
147
117
40
52
52
47
43
39
42
40
43
46
44
55
112
138
135
114
165
198
247
198
170
164
156
154
221
217
214
230
215
146
28
24
26
165
217
185
219
223
238
183
175
177
172
190
187
214
197
157
104
134
120
98
99
102
135
126
107
71
63
56
46
133
208
201
193
160
163
220
176
175
195
225
209
152
178
154
119
119
121
118
133
68
69
67
68
209
199
180
215
168
167
150
150
209
203
226
206
193
129
59
74
75
70
70
69
69
70
72
73
68
67
55
53
120
158
126
139
172
226
235
165
155
171
186
218
219
218
220
137
68
39
42
40
62
125
181
217
223
229
219
174
174
170
179
215
209
168
128
118
169
89
96
104
106
99
125
58
77
60
57
50
103
133
240
215
189
193
253
229
158
192
238
182
167
189
145
127
128
124
123
65
48
51
50
179
184
217
216
181
179
169
196
154
194
186
171
188
118
72
48
55
57
59
73
68
61
57
57
61
62
62
54
43
132
156
143
117
147
178
239
217
160
161
183
214
216
223
115
57
61
66
60
53
45
44
71
181
221
228
212
160
136
173
208
215
183
163
155
185
104
104
111
100
99
97
63
72
77
78
75
70
48
81
195
218
183
201
250
250
200
170
182
224
193
181
196
123
116
121
122
48
50
44
62
221
201
194
215
208
160
187
215
186
195
197
210
114
52
48
57
58
55
59
71
64
54
52
52
90
168
62
45
111
160
155
149
125
105
156
187
251
171
153
206
218
211
169
48
57
50
49
47
45
38
34
34
127
221
221
218
121
167
203
215
196
180
145
167
172
150
86
122
128
118
145
74
73
70
70
75
76
70
68
120
171
199
168
206
251
250
218
178
199
219
195
142
173
167
156
168
48
49
47
139
198
212
198
188
185
160
200
197
160
202
177
167
50
57
91
75
58
59
58
77
214
229
210
197
206
207
211
176
215
160
156
156
154
142
115
168
205
212
105
210
214
198
131
57
68
59
55
54
50
46
43
32
79
233
222
230
173
206
212
217
201
188
160
157
153
184
138
120
125
160
122
94
63
61
59
61
62
74
56
73
79
103
214
196
245
251
223
175
173
220
171
164
116
110
111
105
48
44
71
174
239
194
192
200
217
186
216
166
177
172
164
206
206
199
158
58
93
96
86
115
103
185
201
203
206
207
206
206
209
208
205
203
204
206
204
203
202
197
199
188
195
201
205
201
204
199
193
187
193
190
186
185
191
204
220
186
200
203
216
189
220
215
205
193
187
185
213
199
225
164
199
107
111
63
58
62
58
75
64
58
46
94
212
197
224
251
245
197
177
244
180
187
210
166
107
103
67
61
57
158
225
199
186
189
229
185
200
189
231
224
211
178
201
190
127
141
149
148
148
153
114
86
186
205
208
208
210
208
209
212
206
203
202
206
203
207
208
202
201
200
201
208
206
204
207
207
206
204
199
192
202
212
212
201
217
184
204
208
189
195
206
211
211
212
211
209
210
214
215
213
215
229
232
244
195
53
58
78
67
65
61
72
140
190
182
247
251
218
195
167
240
228
237
196
107
99
46
41
81
222
228
218
191
198
235
195
165
184
217
235
220
207
192
205
132
112
112
109
115
81
40
57
94
178
211
207
208
204
211
211
208
205
205
204
201
209
209
207
203
206
209
209
206
204
206
209
209
205
205
208
210
213
213
208
180
208
208
187
185
213
210
212
215
213
211
212
216
215
213
213
216
214
218
165
74
78
78
82
78
75
72
60
69
96
183
227
252
239
203
211
198
242
196
210
122
90
44
45
117
171
199
203
189
190
199
239
171
156
207
215
220
202
186
71
111
113
111
109
89
47
45
36
49
98
185
211
209
210
209
210
208
187
186
186
184
190
204
200
200
197
206
200
203
199
203
206
202
197
197
203
204
210
216
182
206
211
205
176
220
212
206
209
209
211
211
213
215
213
211
212
213
213
141
105
60
62
65
69
78
70
71
68
75
68
138
233
249
249
183
169
173
191
202
180
163
168
46
39
84
180
167
197
185
187
188
202
165
107
223
211
178
183
149
97
99
105
103
106
45
45
41
38
34
43
99
177
211
209
209
209
211
110
82
117
119
100
96
128
210
212
225
190
101
99
97
95
98
86
89
90
98
105
124
199
203
210
184
172
138
149
153
162
174
175
194
212
214
209
213
212
212
136
123
99
100
66
59
58
58
58
57
76
220
124
74
149
246
233
199
187
178
186
180
191
122
113
43
35
46
131
193
187
163
179
228
195
208
143
236
233
211
143
52
41
48
53
50
52
51
46
42
67
73
44
72
101
173
211
211
210
208
219
64
25
24
27
27
128
207
205
203
213
210
147
44
41
42
40
40
36
50
146
184
206
204
188
205
171
28
30
26
27
50
116
200
214
215
215
215
217
170
112
128
115
121
116
68
56
57
58
55
64
195
176
178
81
159
241
186
166
206
175
186
200
177
112
62
53
41
121
193
190
188
188
217
228
212
187
192
221
177
119
44
66
67
73
69
72
70
63
54
134
119
112
125
108
98
171
213
212
210
206
220
63
59
81
94
174
181
182
182
172
166
194
186
195
210
204
204
196
182
176
210
215
208
205
210
218
47
37
33
31
37
208
212
216
217
215
216
175
216
192
203
134
121
109
81
58
56
57
48
109
202
185
193
83
97
175
167
226
232
207
191
181
116
111
46
40
99
180
205
179
208
199
190
233
182
194
156
187
197
116
47
54
56
54
55
53
61
52
57
171
166
145
155
149
120
89
168
212
204
192
170
142
160
178
177
178
186
189
189
186
187
196
194
180
189
216
213
211
204
199
207
185
155
147
200
238
135
60
59
54
209
214
217
215
219
211
200
189
205
195
198
180
158
135
111
79
73
66
60
94
195
216
174
166
232
209
209
244
236
225
187
185
77
77
52
43
117
172
164
198
206
173
165
190
144
225
205
161
190
153
46
59
60
59
58
57
63
54
69
77
134
146
156
131
107
107
158
151
132
173
169
169
179
184
192
194
194
194
200
201
201
193
179
201
203
205
211
220
204
208
207
203
200
194
224
231
172
145
207
214
212
215
212
214
211
198
209
203
211
222
221
181
121
121
95
75
73
65
63
76
222
224
170
155
202
160
166
239
229
211
196
193
156
155
52
82
222
157
173
190
240
234
214
192
147
214
213
182
181
82
57
59
58
60
58
56
65
57
34
33
54
60
157
162
140
154
167
167
174
177
181
183
186
185
210
150
196
206
199
209
199
231
158
167
208
202
225
162
223
210
208
199
158
163
184
217
218
213
216
203
180
158
220
221
210
211
217
191
200
186
158
152
120
118
85
70
73
57
55
82
140
243
208
151
169
209
162
189
225
184
199
232
155
107
51
95
219
218
175
170
185
236
220
197
157
179
193
187
239
61
55
57
57
56
59
59
67
55
38
37
55
167
136
168
172
174
181
175
184
124
173
190
191
198
204
185
164
203
206
199
207
212
216
194
169
214
218
222
224
228
214
165
214
211
242
212
177
213
212
217
202
188
223
164
191
198
156
160
163
132
114
110
115
120
71
72
69
59
53
43
94
213
240
213
189
169
243
201
229
192
167
150
155
105
68
119
254
238
177
186
179
200
207
164
175
196
185
186
198
135
78
82
82
82
83
80
75
74
77
153
149
159
167
177
173
144
170
193
188
186
186
186
190
201
183
209
200
187
202
215
208
227
197
214
197
177
234
211
230
225
214
191
224
222
226
241
223
227
227
216
147
176
210
202
201
190
173
225
199
75
107
112
118
113
124
70
71
58
53
48
136
242
245
203
179
169
226
227
182
169
167
153
193
116
78
156
252
238
208
161
173
200
190
211
196
222
205
204
137
110
89
58
55
54
53
54
51
147
140
162
166
171
172
177
197
174
169
199
190
178
192
190
196
193
180
205
213
175
193
212
205
222
192
209
218
192
180
219
229
223
213
213
227
223
223
233
232
234
232
232
190
231
203
180
153
203
192
232
157
215
163
150
158
162
101
87
82
86
83
74
110
145
251
232
208
172
210
184
178
169
143
208
203
136
73
106
247
240
239
176
168
196
218
223
220
231
190
205
139
101
103
100
61
56
51
79
165
152
168
171
167
174
180
183
184
197
174
162
198
187
199
196
190
191
160
194
217
218
173
190
202
212
176
210
210
214
204
209
222
225
229
183
227
222
228
226
230
237
235
229
218
245
229
234
221
228
212
211
205
214
196
175
123
121
91
62
63
63
57
52
74
88
196
223
178
181
189
171
242
216
176
213
143
154
47
86
240
229
221
206
181
185
216
234
205
208
200
211
129
101
103
104
104
61
110
143
171
171
179
190
134
182
179
183
185
189
201
174
173
187
199
205
201
141
195
200
202
218
199
208
201
201
204
196
206
209
214
219
221
219
239
212
163
213
223
189
235
242
247
226
222
175
214
235
240
237
220
177
180
222
244
186
209
111
118
72
56
56
50
49
40
100
182
218
185
188
179
230
250
247
219
180
173
111
55
88
227
247
236
207
147
188
189
226
215
207
224
234
168
170
91
94
93
89
181
160
169
173
177
195
180
146
179
185
185
186
188
207
160
185
195
196
211
196
196
191
180
180
176
172
175
179
177
174
178
184
182
189
193
207
200
212
221
237
232
222
231
229
237
215
240
247
237
243
249
242
243
242
239
175
191
221
240
199
139
60
56
54
52
50
43
117
199
183
184
198
165
240
243
236
225
199
205
106
63
120
130
228
250
210
179
179
247
217
185
176
232
227
234
171
149
150
149
142
191
166
170
177
182
186
180
189
151
164
180
184
190
186
192
189
191
161
156
168
185
183
160
131
120
120
118
115
115
116
114
118
115
119
123
125
128
163
211
230
222
187
196
243
246
215
162
239
241
235
242
243
242
230
215
228
195
156
201
248
212
103
57
55
55
49
79
141
160
178
186
192
144
211
229
226
219
227
173
122
53
92
112
190
223
230
165
183
206
236
223
210
245
223
216
195
100
57
58
52
71
201
174
180
189
189
150
149
188
179
124
172
185
176
142
174
168
154
111
106
115
117
116
111
113
107
104
107
106
104
105
106
107
110
112
113
113
116
116
114
100
144
205
240
201
228
241
248
207
209
250
242
243
224
170
210
224
239
238
242
189
140
77
83
85
72
115
146
177
191
204
180
158
168
186
181
210
195
201
211
52
64
184
135
124
223
177
178
175
193
195
202
238
236
215
220
97
63
61
56
41
166
185
190
186
211
180
185
187
170
181
154
150
165
125
108
111
113
118
103
87
72
69
83
69
74
80
79
80
88
111
35
20
127
87
85
112
83
86
88
103
116
115
118
133
173
242
227
221
251
250
203
216
230
238
245
250
245
224
221
186
112
79
78
79
66
133
172
171
231
222
162
176
172
179
180
204
217
203
190
55
93
202
194
120
213
193
158
206
200
186
180
224
218
210
208
66
62
61
57
49
65
221
187
185
191
164
177
173
154
153
148
103
107
103
102
59
49
67
92
110
62
74
68
122
162
161
171
159
158
73
14
18
63
151
160
117
102
90
91
97
100
78
101
113
113
120
114
213
246
204
244
236
176
234
247
247
250
247
212
168
72
65
61
60
99
203
199
170
221
173
154
185
233
234
167
188
221
184
156
50
136
192
204
165
173
244
185
193
192
174
173
181
174
186
211
97
67
66
59
52
42
174
191
191
162
171
163
163
129
107
108
98
68
67
68
74
64
173
192
153
100
116
119
75
144
194
183
189
184
189
56
65
187
127
174
184
152
97
97
96
87
104
110
102
81
88
118
115
119
154
233
228
235
240
207
195
249
250
227
161
87
64
62
60
60
182
213
190
187
213
185
219
223
206
172
166
215
208
147
67
103
240
200
166
148
224
204
164
212
179
188
175
188
207
202
185
59
63
63
65
54
99
228
186
159
164
136
111
110
105
85
92
108
115
116
107
92
196
205
142
114
141
153
121
186
173
192
183
187
196
189
198
196
197
140
180
193
186
97
88
93
73
201
196
116
104
107
98
124
125
125
127
233
230
248
250
251
244
190
122
69
64
63
110
202
185
208
195
177
204
242
204
215
181
197
189
214
167
137
40
87
203
192
155
160
145
213
231
160
197
200
216
186
201
162
98
68
70
66
61
54
57
208
179
143
122
138
120
75
92
122
116
125
127
124
117
111
208
195
130
120
142
133
184
191
203
143
183
184
193
195
199
200
201
168
153
190
199
157
115
117
102
172
202
166
110
108
107
104
95
114
142
141
142
233
249
252
248
135
106
75
64
57
96
251
233
215
173
170
189
217
167
204
189
209
196
221
162
106
48
88
227
181
175
166
160
145
213
143
182
246
219
173
171
179
48
59
67
63
58
49
44
178
132
120
150
197
197
96
59
57
163
124
95
114
123
146
212
202
150
179
129
174
181
195
179
116
96
178
184
188
200
200
199
59
89
168
198
227
168
147
137
143
212
224
105
110
116
137
103
68
67
114
147
157
213
251
239
148
152
80
81
69
80
151
244
247
185
178
208
174
224
210
176
157
178
180
211
171
43
82
127
179
232
183
153
158
157
206
172
245
232
200
168
221
60
64
66
71
64
55
65
151
137
119
128
124
125
145
84
41
76
159
127
123
124
175
206
194
140
142
197
203
206
207
164
32
29
94
227
215
214
219
50
24
28
118
180
210
241
174
128
113
217
229
143
139
158
149
38
35
107
154
163
129
155
218
231
129
103
63
63
62
117
244
208
216
196
154
150
232
203
153
178
176
201
200
125
136
48
38
68
100
213
199
191
201
157
210
185
253
244
200
193
207
93
60
71
75
61
56
76
144
205
138
133
147
154
148
82
30
69
140
125
115
103
206
207
156
201
198
207
210
200
192
95
23
27
28
100
218
228
85
28
29
25
39
147
184
218
248
155
122
204
224
165
142
172
64
29
102
139
126
141
167
124
149
198
79
64
62
61
66
147
253
227
216
181
145
156
205
186
180
172
170
196
210
121
131
55
52
39
67
206
187
179
186
181
194
158
214
244
245
212
158
108
201
132
72
61
55
50
128
196
226
219
203
166
144
40
35
200
143
115
106
110
214
207
233
214
204
210
215
209
170
31
32
33
29
36
117
104
31
35
36
33
22
83
154
193
226
246
109
177
220
212
151
177
131
33
130
154
157
138
159
148
156
170
57
60
63
61
61
114
249
243
212
231
193
183
172
171
169
160
184
212
137
131
126
53
48
57
124
130
197
159
249
182
219
193
187
214
220
219
222
237
189
156
67
67
68
60
56
119
128
121
121
137
58
50
145
210
124
143
161
151
207
222
229
206
212
212
204
180
183
81
43
58
56
50
54
54
56
54
51
45
176
135
124
161
197
239
207
130
218
232
190
188
193
126
57
182
205
178
164
163
152
131
51
64
58
59
51
78
182
251
231
151
208
188
200
215
174
193
191
158
131
126
131
54
43
70
126
144
129
128
124
128
125
188
179
206
229
189
225
226
201
183
144
56
55
54
48
45
40
47
34
43
50
64
100
211
126
149
67
171
207
231
211
209
212
209
175
200
175
189
178
175
101
71
64
74
105
126
195
144
136
122
99
145
169
209
248
156
229
226
217
161
174
202
53
75
162
161
150
146
132
140
94
83
84
77
142
208
79
151
181
149
210
168
188
160
155
181
183
131
163
159
158
51
43
54
149
176
161
154
134
137
142
149
144
204
225
167
207
242
182
209
108
56
58
54
53
52
48
50
52
54
58
50
55
108
103
50
35
201
209
226
210
215
213
184
223
162
149
159
152
158
152
145
146
154
148
152
137
136
141
129
125
111
153
179
219
233
193
212
167
227
194
122
48
50
53
114
110
113
132
70
67
68
68
69
172
164
170
170
172
148
221
163
168
162
162
170
216
103
115
144
122
51
44
54
107
214
197
160
166
170
161
152
145
146
233
157
170
236
185
186
210
55
61
58
59
55
90
95
62
61
60
62
47
47
57
31
73
207
212
230
213
206
201
205
192
194
197
190
207
195
206
211
187
211
207
206
190
162
171
173
159
142
121
161
186
226
184
214
166
109
137
52
58
62
68
112
115
127
123
63
64
66
67
195
203
169
155
197
170
163
227
173
175
180
162
184
194
131
121
156
106
53
46
43
87
101
213
233
186
175
165
179
164
162
219
212
170
213
181
179
189
101
57
61
85
98
100
63
61
60
61
64
56
45
42
37
116
213
217
214
213
196
191
182
216
212
201
213
215
212
210
198
212
213
205
201
186
163
159
157
146
130
92
141
171
199
195
218
220
52
59
60
63
68
96
119
120
128
136
92
56
68
68
184
230
150
194
207
174
140
178
162
170
174
190
208
151
125
114
158
107
60
63
51
38
50
124
240
218
206
202
200
126
155
150
227
193
198
190
191
181
148
179
188
151
141
78
79
77
76
78
77
70
68
58
92
149
208
219
209
208
205
160
101
96
107
187
197
164
169
156
155
166
153
159
148
150
203
106
80
78
109
108
101
160
175
202
203
223
89
63
68
70
66
117
99
108
113
117
83
185
98
74
206
237
210
178
227
176
179
152
179
183
201
176
187
126
112
122
149
126
57
58
49
41
35
73
124
166
186
224
208
205
146
158
154
251
206
226
197
194
187
235
202
177
113
114
80
62
61
57
57
58
56
74
144
168
200
224
209
222
166
109
35
41
51
135
182
153
167
179
123
115
127
202
182
171
215
56
45
28
61
112
109
99
162
181
182
213
162
78
78
115
157
160
160
161
157
80
140
230
171
58
168
167
161
155
192
158
206
173
194
211
210
190
192
134
134
144
139
145
59
59
51
48
45
32
135
185
106
182
247
195
181
154
152
215
185
221
207
204
173
249
229
211
167
113
101
62
55
58
59
56
64
149
144
180
213
208
218
204
154
45
51
57
41
139
225
216
219
117
42
44
55
186
224
211
232
40
45
45
43
94
94
79
138
163
168
209
243
145
118
121
124
137
133
133
73
80
166
230
188
99
182
164
156
167
162
141
206
192
196
217
215
193
222
138
142
138
135
141
61
63
54
58
57
49
117
203
133
141
151
244
182
163
149
170
212
185
200
180
173
246
228
153
195
110
80
63
56
59
55
67
149
187
136
201
227
216
213
151
53
58
63
66
48
133
232
180
204
89
50
48
45
159
195
179
199
49
54
52
57
44
41
104
94
162
145
211
223
251
144
116
119
122
134
76
76
178
235
235
193
232
227
204
152
163
216
182
191
202
206
166
158
160
165
159
135
126
118
124
53
55
55
45
44
34
92
226
174
140
159
133
230
189
194
210
223
176
208
169
165
238
236
194
199
228
74
58
55
58
57
155
181
194
144
175
223
209
176
75
52
57
61
67
52
103
117
121
166
70
60
57
49
109
148
127
120
65
57
58
64
92
110
103
110
121
155
158
215
231
248
126
115
121
69
69
71
132
249
186
176
204
188
166
188
167
175
164
169
150
157
185
168
180
157
114
132
124
126
126
73
71
70
66
61
51
83
229
237
180
153
168
165
242
176
146
147
160
130
146
197
240
234
214
209
193
135
86
82
78
113
162
180
199
165
149
210
195
146
69
67
76
78
73
67
59
58
62
72
61
72
74
67
78
71
61
61
65
67
69
72
84
103
104
100
93
145
150
193
203
230
246
115
85
69
69
116
221
234
219
207
225
182
148
193
187
209
182
155
206
159
203
196
228
152
135
135
128
125
128
76
64
54
54
48
49
77
97
122
249
199
156
116
239
252
210
153
138
138
148
144
238
240
212
215
189
191
86
66
62
56
126
174
197
194
168
206
160
123
110
61
64
66
61
125
141
58
71
156
176
89
80
73
68
164
67
68
73
63
189
80
87
145
140
146
156
114
131
166
197
200
156
164
78
82
104
168
173
177
172
178
217
149
138
158
206
136
160
163
216
223
218
179
126
141
115
121
117
116
104
79
53
54
52
50
52
40
45
89
229
237
120
130
118
201
246
226
139
142
149
149
138
155
240
218
227
184
167
61
59
50
56
105
156
187
191
181
128
115
115
61
57
56
47
145
113
128
81
160
74
158
63
68
127
76
169
62
48
170
44
156
45
62
122
136
92
106
116
132
145
150
137
106
72
57
96
169
182
179
197
179
181
203
161
139
194
150
151
195
167
163
183
104
118
142
148
144
141
137
136
53
53
55
54
51
57
47
33
89
220
227
166
145
101
108
221
248
243
178
152
140
152
146
186
241
210
184
161
169
45
55
47
46
110
124
168
158
110
115
111
95
75
56
49
170
130
71
52
160
211
103
85
68
44
63
183
57
65
189
9
177
42
53
69
143
94
119
97
114
146
128
96
50
156
125
122
160
174
165
176
246
213
166
185
194
207
232
165
168
191
186
199
122
116
119
116
106
105
111
115
54
54
52
53
51
54
50
43
84
93
113
92
213
172
144
135
250
245
217
198
195
142
126
139
223
167
156
147
142
164
181
47
47
94
109
104
117
114
109
114
88
61
59
47
175
71
69
93
130
102
174
55
57
44
210
81
57
48
107
127
187
47
54
54
99
100
109
108
86
108
88
195
180
183
203
210
198
176
175
178
240
192
196
189
192
166
174
150
188
157
128
140
136
115
106
108
102
105
108
104
61
63
64
63
60
62
57
53
43
54
49
61
97
128
129
137
181
218
191
158
184
234
179
171
188
172
173
177
150
142
161
169
132
89
95
96
100
90
92
78
64
65
62
105
174
69
67
105
185
148
172
55
52
173
198
182
100
52
52
181
82
47
53
55
57
98
118
114
110
65
101
199
194
172
182
242
192
176
179
127
183
189
161
175
203
171
211
197
132
71
107
75
105
114
109
108
109
110
105
111
62
58
59
59
56
57
53
51
49
50
37
31
79
122
145
156
172
147
144
151
143
142
157
145
176
207
162
224
230
162
156
157
156
193
139
225
143
139
128
86
85
79
80
64
68
80
93
93
120
106
84
81
73
88
75
69
71
69
102
77
70
74
73
71
120
141
73
204
202
147
190
219
177
172
171
187
181
183
247
186
137
145
136
141
146
140
160
206
173
56
123
127
97
83
86
80
86
82
78
85
102
62
54
52
50
54
51
49
48
55
45
43
176
201
165
158
189
197
182
179
158
167
147
147
143
184
135
139
202
245
226
152
150
143
123
214
219
215
185
97
108
75
62
58
63
62
70
70
100
61
61
67
74
58
55
59
63
63
56
64
75
66
63
93
191
196
215
204
193
199
157
190
153
170
212
158
155
181
172
161
145
149
147
143
147
140
166
191
160
175
152
152
160
166
164
172
168
167
161
166
106
62
53
51
51
55
52
53
54
60
47
37
73
116
215
200
204
215
221
218
205
197
157
176
192
168
176
117
121
223
250
208
151
149
142
245
236
219
209
215
202
201
100
79
190
187
108
100
107
71
65
65
79
69
68
66
59
78
67
74
121
178
112
189
196
204
188
164
195
195
141
194
166
174
219
192
156
170
169
173
160
144
159
196
187
193
224
170
96
127
109
108
110
112
128
101
118
114
120
115
112
64
56
55
52
55
55
53
54
60
44
40
31
62
156
172
189
225
213
217
221
231
233
205
191
181
169
171
145
186
253
227
163
162
147
224
243
219
196
209
197
176
205
99
243
234
224
165
92
77
72
95
93
83
166
181
167
183
160
81
206
225
204
201
194
182
190
195
179
215
201
191
154
154
204
164
170
169
170
154
176
191
197
201
193
169
142
178
107
109
110
105
105
111
141
85
112
112
117
113
99
91
82
65
63
52
50
51
50
60
46
43
37
37
56
62
96
181
226
233
232
218
225
209
204
226
213
170
158
113
157
243
221
159
173
130
226
240
247
221
164
168
216
165
251
222
223
224
221
154
110
143
142
122
170
162
167
181
111
142
222
224
213
208
216
176
164
216
184
180
189
167
221
175
163
164
198
237
223
207
189
160
175
201
164
108
88
146
100
106
109
107
106
115
152
93
113
113
114
110
137
143
139
142
147
141
100
73
71
68
68
63
57
52
41
32
78
92
78
96
150
225
233
159
150
175
198
171
160
126
111
174
253
181
155
148
120
196
251
233
181
157
161
164
194
230
221
218
230
225
143
188
168
219
218
179
206
202
70
180
228
222
213
223
191
179
169
192
216
191
172
175
243
222
162
157
182
215
209
178
160
112
132
106
112
43
93
103
103
109
113
109
107
114
136
127
123
120
118
115
109
103
107
101
117
79
53
55
55
54
53
52
52
49
41
43
32
34
32
49
72
108
167
180
152
167
158
165
168
205
200
139
248
246
206
169
162
128
231
235
224
191
161
149
153
176
253
238
217
197
198
250
198
186
197
171
207
181
124
200
201
205
201
198
166
192
169
171
195
161
179
162
186
148
128
133
136
144
183
179
167
57
50
68
80
149
155
153
160
157
163
160
161
148
153
151
145
154
154
141
113
108
111
103
94
70
52
56
54
54
50
50
52
51
48
46
44
38
36
30
48
200
250
247
198
158
157
164
158
178
178
162
130
175
202
193
199
152
172
161
160
153
203
146
155
151
213
250
225
150
183
237
212
199
177
203
199
196
174
170
201
160
178
229
189
229
178
126
143
154
159
146
177
136
134
149
169
176
197
208
216
146
54
68
104
113
115
114
114
108
135
109
130
127
125
127
125
125
123
125
113
108
112
105
131
115
107
50
52
52
54
52
51
51
53
48
47
48
48
41
69
92
137
244
244
235
211
199
184
143
137
156
117
162
162
136
176
191
175
188
165
182
164
191
161
150
126
214
178
149
169
198
196
179
170
218
163
185
163
159
141
137
129
129
162
155
181
198
176
199
198
193
200
188
178
157
181
203
212
211
117
127
152
85
113
116
113
111
118
108
130
103
118
115
111
112
109
110
105
105
117
108
112
108
123
121
114
115
112
86
52
54
54
53
53
54
52
54
50
44
36
55
108
131
180
188
239
244
232
220
202
212
210
192
206
154
155
169
168
179
181
192
200
199
175
211
191
164
152
155
185
184
192
205
185
209
216
180
164
166
156
151
138
143
139
150
148
183
204
220
203
200
207
210
234
233
208
148
132
162
143
119
157
104
113
114
113
110
109
108
134
94
115
107
109
109
106
102
102
101
123
124
127
133
132
119
101
96
96
67
53
55
53
59
56
56
59
58
56
53
49
37
73
100
86
97
122
228
212
210
230
212
215
162
176
160
163
166
159
189
184
186
205
216
198
205
201
172
139
132
165
177
184
215
201
184
200
173
160
192
173
172
175
182
159
150
149
124
95
184
193
189
165
141
93
102
119
99
97
120
132
131
161
119
115
122
116
109
114
110
131
99
115
115
109
111
112
111
109
109
119
117
114
119
116
124
125
120
127
127
130
134
125
114
125
80
58
58
56
51
50
49
37
39
40
59
98
92
88
108
141
178
133
169
169
180
176
176
191
166
161
177
214
206
187
188
216
214
228
163
144
167
173
221
203
180
159
173
213
226
227
239
237
235
218
212
175
148
124
124
176
146
100
86
57
59
67
79
108
117
114
121
132
131
113
115
109
111
102
102
101
107
92
88
87
86
86
83
89
95
108
98
108
110
109
108
112
112
116
125
114
110
110
109
63
52
49
44
42
42
40
39
38
32
31
28
34
43
34
59
96
124
190
205
233
217
244
240
194
175
113
117
124
215
211
163
173
187
218
149
114
145
153
161
165
185
177
165
171
147
148
122
142
200
234
238
238
197
161
105
102
154
32
39
47
49
52
95
152
137
143
140
143
150
150
148
146
153
152
152
157
158
161
168
164
165
165
164
162
154
102
104
108
99
125
111
107
110
120
125
110
112
106
59
51
49
46
46
44
41
40
40
41
37
37
35
34
45
41
28
55
161
191
199
204
210
152
129
165
144
123
126
190
210
138
188
163
181
190
144
51
176
236
155
160
162
188
160
185
197
177
171
127
113
166
161
118
101
89
60
74
68
44
49
51
82
106
114
143
108
121
114
116
116
112
111
108
105
108
108
112
109
110
111
109
134
96
119
118
115
105
107
107
100
128
107
107
108
118
130
94
114
86
56
51
52
51
50
48
46
46
47
46
41
43
42
44
57
53
38
52
83
68
88
81
93
70
50
108
130
150
189
177
107
78
222
215
198
195
200
26
68
174
243
222
138
138
192
188
171
240
184
154
88
150
109
43
31
31
36
52
58
63
89
118
114
110
114
142
101
120
117
112
116
113
106
105
107
108
106
105
108
107
109
112
143
89
123
113
112
106
105
98
101
105
97
93
106
113
122
80
91
91
86
59
51
51
47
48
49
49
52
45
47
46
40
44
61
54
44
36
37
32
45
54
38
27
67
216
225
236
190
119
33
58
232
237
199
206
90
37
44
93
102
227
234
160
128
146
203
174
233
224
193
90
49
48
49
83
107
147
97
124
119
120
109
108
115
143
106
117
116
106
111
112
107
104
109
107
104
105
110
108
110
107
145
99
118
117
113
141
145
152
148
151
151
148
149
142
144
134
137
137
136
75
81
114
116
78
72
74
93
70
68
68
67
64
61
61
58
54
46
48
42
45
48
35
93
105
218
251
155
45
37
71
136
235
130
136
65
50
47
46
82
165
247
242
150
81
105
196
145
114
139
252
76
81
98
101
102
136
98
102
95
104
95
90
92
119
97
91
90
90
90
97
95
94
95
96
97
97
103
103
106
112
142
123
114
107
109
109
110
109
113
108
107
104
104
109
111
108
113
111
128
107
118
112
108
108
100
112
111
83
99
75
54
55
56
54
54
53
50
50
51
50
49
43
45
111
131
252
95
50
50
43
90
194
79
68
54
55
52
44
57
89
95
147
187
31
76
123
228
203
106
131
154
137
147
149
155
151
153
159
161
154
156
155
153
159
162
165
164
162
166
159
159
156
153
151
148
150
151
144
135
130
139
147
153
151
147
111
110
111
135
107
106
101
99
120
111
111
112
107
132
105
110
108
109
108
108
117
113
108
89
52
53
52
52
53
50
57
49
58
58
53
51
50
40
55
88
174
58
55
53
35
86
119
79
46
54
53
50
45
37
45
45
75
81
33
29
69
99
67
91
90
139
105
112
111
108
108
112
104
105
104
102
104
107
111
120
118
115
121
135
125
123
118
118
114
115
113
112
117
116
114
117
115
118
118
121
112
111
105
135
107
102
108
112
115
117
116
114
106
142
102
113
107
111
107
107
116
125
92
53
50
53
55
54
65
92
110
110
80
53
57
56
52
47
40
46
65
55
59
57
50
46
36
49
56
58
54
53
48
47
40
40
32
41
41
38
31
27
39
105
108
143
110
112
112
113
114
111
107
110
104
103
108
108
108
116
116
118
119
137
112
113
115
114
107
106
104
107
105
110
107
106
109
110
109
110
108
99
97
116
111
110
111
114
118
119
117
117
103
133
109
113
113
113
105
111
118
127
116
97
98
74
68
94
112
109
109
70
53
57
57
57
55
53
49
53
57
59
61
59
95
111
68
60
62
58
57
55
56
53
52
51
49
63
49
47
48
69
102
104
109
141
125
112
112
110
112
114
114
107
105
105
107
109
108
112
117
116
113
144
111
105
106
106
108
106
105
97
104
102
105
104
106
107
109
107